<svg xmlns="http://www.w3.org/2000/svg" xmlns:xlink="http://www.w3.org/1999/xlink" width="64" zoomAndPan="magnify" viewBox="0 0 48 48" height="64" preserveAspectRatio="xMidYMid meet" version="1.0"><defs><clipPath id="8175b36b67"><path d="M 1.59375 1.101562 L 46.40625 1.101562 L 46.40625 45.917969 L 1.59375 45.917969 Z M 1.59375 1.101562 " clip-rule="nonzero"/></clipPath></defs><g clip-path="url(#8175b36b67)"><path fill="#000000" d="M 28.15625 31.957031 C 25.507812 30.960938 25.25 27.332031 27.683594 25.945312 C 28.234375 27.449219 28.941406 30.441406 28.15625 31.957031 Z M 29.296875 39.886719 C 29.546875 39.632812 29.953125 39.632812 30.203125 39.886719 C 30.457031 40.136719 30.457031 40.542969 30.203125 40.796875 L 28.734375 42.265625 C 31.339844 42.382812 33.867188 41.734375 36.046875 40.476562 C 38.59375 39.003906 40.664062 36.703125 41.808594 33.828125 C 41.9375 33.5 42.3125 33.335938 42.640625 33.46875 C 42.96875 33.597656 43.128906 33.96875 43 34.300781 C 41.742188 37.453125 39.476562 39.976562 36.6875 41.585938 C 34.394531 42.914062 31.746094 43.621094 29.007812 43.5625 L 30.203125 44.753906 C 30.457031 45.007812 30.457031 45.414062 30.203125 45.664062 C 29.953125 45.917969 29.546875 45.917969 29.296875 45.664062 L 26.859375 43.230469 C 26.609375 42.980469 26.609375 42.570312 26.859375 42.320312 Z M 19.5 17.875 C 20.296875 17.144531 21.035156 16.628906 21.964844 16.089844 C 24.261719 14.765625 26.910156 14.054688 29.644531 14.117188 L 28.453125 12.921875 C 28.199219 12.667969 28.199219 12.261719 28.453125 12.011719 C 28.703125 11.761719 29.109375 11.761719 29.359375 12.011719 L 31.796875 14.445312 C 32.046875 14.699219 32.046875 15.105469 31.796875 15.355469 L 29.359375 17.789062 C 29.109375 18.042969 28.703125 18.042969 28.453125 17.789062 C 28.199219 17.539062 28.199219 17.132812 28.453125 16.882812 L 29.921875 15.410156 C 27.316406 15.292969 24.789062 15.941406 22.609375 17.199219 C 21.988281 17.558594 20.832031 18.425781 20.832031 18.425781 C 20.398438 18.21875 19.957031 18.035156 19.5 17.875 Z M 16.53125 36.117188 C 17.015625 36.09375 17.496094 36.066406 17.96875 36.027344 C 17.9375 35.960938 17.738281 35.636719 17.691406 35.554688 C 16.433594 33.378906 15.78125 30.847656 15.898438 28.242188 L 17.371094 29.714844 C 17.621094 29.964844 18.03125 29.964844 18.28125 29.714844 C 18.53125 29.464844 18.53125 29.058594 18.28125 28.804688 L 15.84375 26.371094 C 15.59375 26.121094 15.1875 26.121094 14.9375 26.371094 L 12.5 28.804688 C 12.25 29.058594 12.25 29.464844 12.5 29.714844 C 12.753906 29.964844 13.160156 29.964844 13.410156 29.714844 L 14.605469 28.519531 C 14.546875 31.222656 15.238281 33.839844 16.53125 36.117188 Z M 17.980469 36.039062 C 19.085938 35.949219 20.023438 35.8125 21.046875 35.621094 C 20.828125 35.46875 20.644531 35.265625 20.503906 35.023438 C 20.1875 34.480469 19.875 33.933594 19.558594 33.386719 C 19.03125 32.476562 19.347656 31.308594 20.257812 30.78125 C 20.875 30.425781 20.753906 29.492188 20.0625 29.308594 C 19.050781 29.035156 18.441406 27.984375 18.714844 26.972656 C 18.878906 26.363281 19.039062 25.753906 19.203125 25.148438 C 19.472656 24.132812 20.527344 23.527344 21.539062 23.796875 C 22.234375 23.984375 22.804688 23.242188 22.445312 22.617188 C 21.917969 21.707031 22.230469 20.539062 23.140625 20.015625 L 23.277344 19.933594 C 22.523438 19.347656 21.703125 18.84375 20.832031 18.425781 C 19.105469 19.832031 17.714844 21.675781 16.847656 23.847656 C 16.71875 24.179688 16.34375 24.339844 16.015625 24.207031 C 15.6875 24.078125 15.527344 23.707031 15.65625 23.378906 C 16.515625 21.21875 17.851562 19.355469 19.5 17.875 C 18.105469 17.386719 16.605469 17.121094 15.046875 17.121094 C 7.617188 17.121094 1.59375 23.144531 1.59375 30.574219 C 1.59375 34.703125 9.148438 36.574219 16.53125 36.113281 C 18.140625 38.90625 20.710938 41.253906 23.867188 42.507812 C 24.195312 42.640625 24.566406 42.480469 24.699219 42.148438 C 24.828125 41.820312 24.667969 41.449219 24.339844 41.316406 C 20.234375 39.683594 18.113281 36.253906 17.980469 36.039062 Z M 40.375 28.871094 C 40.125 28.621094 40.125 28.210938 40.375 27.960938 C 40.625 27.710938 41.035156 27.710938 41.285156 27.960938 L 42.757812 29.433594 C 42.875 26.828125 42.222656 24.296875 40.964844 22.121094 C 39.496094 19.570312 37.191406 17.503906 34.316406 16.359375 C 33.988281 16.226562 33.828125 15.855469 33.957031 15.527344 C 34.089844 15.199219 34.460938 15.035156 34.789062 15.167969 C 37.945312 16.421875 40.464844 18.6875 42.078125 21.476562 C 43.402344 23.773438 44.113281 26.421875 44.050781 29.15625 L 45.246094 27.960938 C 45.496094 27.710938 45.902344 27.710938 46.15625 27.960938 C 46.40625 28.210938 46.40625 28.621094 46.15625 28.871094 L 43.71875 31.304688 C 43.46875 31.558594 43.0625 31.558594 42.808594 31.304688 Z M 37.449219 32.636719 C 37.78125 32.722656 38.121094 32.527344 38.210938 32.195312 L 38.699219 30.371094 C 38.789062 30.039062 38.59375 29.699219 38.261719 29.609375 C 36.464844 29.128906 36.144531 26.710938 37.757812 25.78125 C 38.054688 25.609375 38.15625 25.230469 37.984375 24.933594 L 37.039062 23.296875 C 36.867188 23 36.488281 22.898438 36.191406 23.070312 C 34.578125 24 32.644531 22.515625 33.125 20.714844 C 33.214844 20.386719 33.015625 20.042969 32.6875 19.957031 L 30.859375 19.46875 C 30.53125 19.378906 30.191406 19.574219 30.101562 19.90625 C 29.621094 21.703125 27.199219 22.023438 26.269531 20.410156 C 26.097656 20.113281 25.71875 20.011719 25.421875 20.183594 L 23.785156 21.128906 C 23.488281 21.300781 23.386719 21.679688 23.558594 21.976562 C 24.488281 23.585938 23.003906 25.523438 21.207031 25.042969 C 20.875 24.953125 20.535156 25.148438 20.445312 25.480469 L 19.957031 27.304688 C 19.867188 27.636719 20.0625 27.976562 20.394531 28.066406 C 22.191406 28.546875 22.511719 30.964844 20.898438 31.898438 C 20.601562 32.066406 20.5 32.449219 20.671875 32.746094 L 21.617188 34.382812 C 21.789062 34.679688 22.167969 34.78125 22.464844 34.609375 C 24.078125 33.675781 26.011719 35.160156 25.53125 36.960938 C 25.441406 37.292969 25.640625 37.632812 25.96875 37.722656 L 27.796875 38.210938 C 28.125 38.296875 28.464844 38.101562 28.554688 37.769531 C 29.039062 35.972656 31.457031 35.65625 32.386719 37.265625 C 32.558594 37.5625 32.9375 37.664062 33.234375 37.492188 L 34.871094 36.550781 C 35.167969 36.378906 35.269531 35.996094 35.097656 35.699219 C 34.167969 34.089844 35.652344 32.152344 37.449219 32.636719 Z M 30.523438 24.378906 C 28.058594 23.71875 25.527344 25.179688 24.867188 27.644531 C 24.207031 30.105469 25.667969 32.636719 28.132812 33.296875 C 30.597656 33.957031 33.128906 32.496094 33.789062 30.035156 C 34.449219 27.570312 32.988281 25.039062 30.523438 24.378906 Z M 6.492188 3.660156 L 7.542969 3.660156 L 7.542969 8.039062 L 6.492188 8.039062 C 6.046875 8.039062 5.683594 7.675781 5.683594 7.234375 L 5.683594 4.46875 C 5.683594 4.023438 6.046875 3.660156 6.492188 3.660156 Z M 10.449219 1.101562 C 9.558594 1.101562 8.828125 1.832031 8.828125 2.726562 L 8.828125 11.914062 C 8.828125 12.808594 9.558594 13.539062 10.449219 13.539062 L 19.640625 13.539062 C 20.535156 13.539062 21.265625 12.808594 21.265625 11.914062 L 21.265625 2.726562 C 21.265625 1.832031 20.535156 1.101562 19.640625 1.101562 Z M 18.074219 4.585938 C 18.769531 4.585938 19.335938 5.152344 19.335938 5.851562 C 19.335938 6.546875 18.769531 7.113281 18.074219 7.113281 C 17.375 7.113281 16.808594 6.546875 16.808594 5.851562 C 16.808594 5.152344 17.375 4.585938 18.074219 4.585938 Z M 16.660156 9.410156 C 17.015625 9.410156 17.304688 9.695312 17.304688 10.050781 C 17.304688 10.40625 17.015625 10.695312 16.660156 10.695312 L 13.433594 10.695312 C 13.078125 10.695312 12.789062 10.40625 12.789062 10.050781 C 12.789062 9.695312 13.078125 9.410156 13.433594 9.410156 Z M 12.019531 4.585938 C 12.71875 4.585938 13.28125 5.152344 13.28125 5.851562 C 13.28125 6.546875 12.714844 7.113281 12.019531 7.113281 C 11.324219 7.113281 10.757812 6.546875 10.757812 5.851562 C 10.757812 5.152344 11.324219 4.585938 12.019531 4.585938 Z M 22.550781 3.660156 L 23.601562 3.660156 C 24.042969 3.660156 24.40625 4.023438 24.40625 4.46875 L 24.40625 7.234375 C 24.40625 7.675781 24.042969 8.039062 23.601562 8.039062 L 22.550781 8.039062 Z M 22.550781 3.660156 " fill-opacity="1" fill-rule="evenodd"/></g></svg>