<svg xmlns="http://www.w3.org/2000/svg" xmlns:xlink="http://www.w3.org/1999/xlink" width="64" zoomAndPan="magnify" viewBox="0 0 48 48" height="64" preserveAspectRatio="xMidYMid meet" version="1.0"><defs><clipPath id="f92fa05f4a"><path d="M 0.488281 0.0898438 L 47.507812 0.0898438 L 47.507812 47 L 0.488281 47 Z M 0.488281 0.0898438 " clip-rule="nonzero"/></clipPath></defs><g clip-path="url(#f92fa05f4a)"><path fill="#ffffff" d="M 21.085938 16.105469 C 14.808594 16.105469 9.699219 21.214844 9.699219 27.492188 C 9.699219 29.683594 10.324219 31.734375 11.402344 33.476562 L 8.984375 35.824219 C 8.761719 35.714844 8.511719 35.652344 8.253906 35.648438 C 7.792969 35.644531 7.359375 35.8125 7.03125 36.132812 L 1.191406 41.796875 C 0.511719 42.457031 0.496094 43.550781 1.15625 44.230469 L 3.265625 46.402344 C 3.582031 46.734375 4.011719 46.917969 4.472656 46.925781 C 4.484375 46.925781 4.492188 46.925781 4.5 46.925781 C 4.949219 46.925781 5.375 46.753906 5.699219 46.441406 L 11.535156 40.777344 C 11.863281 40.457031 12.050781 40.027344 12.058594 39.566406 C 12.0625 39.308594 12.007812 39.058594 11.90625 38.832031 L 14.230469 36.574219 C 16.136719 38.019531 18.511719 38.875 21.085938 38.875 C 27.363281 38.875 32.46875 33.769531 32.46875 27.492188 C 32.46875 21.210938 27.363281 16.105469 21.085938 16.105469 Z M 10.484375 39.691406 L 4.648438 45.355469 C 4.59375 45.40625 4.53125 45.414062 4.496094 45.414062 C 4.464844 45.414062 4.398438 45.40625 4.347656 45.351562 L 2.242188 43.179688 C 2.160156 43.097656 2.164062 42.960938 2.246094 42.882812 L 8.082031 37.214844 C 8.132812 37.167969 8.195312 37.160156 8.230469 37.160156 C 8.230469 37.160156 8.230469 37.160156 8.234375 37.160156 C 8.265625 37.160156 8.328125 37.167969 8.378906 37.222656 L 10.488281 39.394531 C 10.539062 39.445312 10.546875 39.511719 10.546875 39.542969 C 10.546875 39.574219 10.539062 39.640625 10.484375 39.691406 Z M 10.925781 37.675781 L 10.109375 36.835938 L 12.292969 34.71875 C 12.542969 35.019531 12.804688 35.308594 13.082031 35.582031 Z M 21.085938 37.363281 C 15.640625 37.363281 11.210938 32.933594 11.210938 27.492188 C 11.210938 22.046875 15.640625 17.617188 21.085938 17.617188 C 26.527344 17.617188 30.957031 22.046875 30.957031 27.492188 C 30.957031 32.933594 26.527344 37.363281 21.085938 37.363281 Z M 21.085938 18.605469 C 16.1875 18.605469 12.199219 22.59375 12.199219 27.492188 C 12.199219 32.390625 16.1875 36.375 21.085938 36.375 C 25.984375 36.375 29.96875 32.390625 29.96875 27.492188 C 29.96875 22.59375 25.984375 18.605469 21.085938 18.605469 Z M 21.085938 34.863281 C 17.019531 34.863281 13.710938 31.554688 13.710938 27.492188 C 13.710938 23.425781 17.019531 20.117188 21.085938 20.117188 C 25.148438 20.117188 28.457031 23.425781 28.457031 27.492188 C 28.457031 31.554688 25.148438 34.863281 21.085938 34.863281 Z M 26.613281 30.0625 L 26.539062 30.0625 L 26.539062 22.894531 C 26.539062 22.480469 26.203125 22.140625 25.785156 22.140625 L 23.789062 22.140625 C 23.371094 22.140625 23.035156 22.480469 23.035156 22.894531 L 23.035156 30.0625 L 22.835938 30.0625 L 22.835938 24.988281 C 22.835938 24.570312 22.5 24.234375 22.082031 24.234375 L 20.085938 24.234375 C 19.671875 24.234375 19.332031 24.570312 19.332031 24.988281 L 19.332031 30.0625 L 19.132812 30.0625 L 19.132812 26.992188 C 19.132812 26.574219 18.796875 26.238281 18.378906 26.238281 L 16.382812 26.238281 C 15.96875 26.238281 15.628906 26.574219 15.628906 26.992188 L 15.628906 30.0625 L 15.554688 30.0625 C 15.136719 30.0625 14.800781 30.402344 14.800781 30.820312 C 14.800781 31.234375 15.136719 31.574219 15.554688 31.574219 L 26.613281 31.574219 C 27.03125 31.574219 27.371094 31.234375 27.371094 30.820312 C 27.371094 30.402344 27.03125 30.0625 26.613281 30.0625 Z M 24.546875 23.652344 L 25.027344 23.652344 L 25.027344 30.0625 L 24.546875 30.0625 Z M 20.84375 25.742188 L 21.324219 25.742188 L 21.324219 30.0625 L 20.84375 30.0625 Z M 17.140625 27.75 L 17.625 27.75 L 17.625 30.0625 L 17.140625 30.0625 Z M 9.6875 18.125 C 14.660156 18.125 18.707031 14.078125 18.707031 9.105469 C 18.707031 4.132812 14.660156 0.0898438 9.6875 0.0898438 C 4.71875 0.0898438 0.671875 4.132812 0.671875 9.105469 C 0.671875 14.078125 4.71875 18.125 9.6875 18.125 Z M 9.6875 1.597656 C 13.828125 1.597656 17.195312 4.964844 17.195312 9.105469 C 17.195312 13.246094 13.828125 16.613281 9.6875 16.613281 C 5.550781 16.613281 2.183594 13.246094 2.183594 9.105469 C 2.183594 4.964844 5.550781 1.597656 9.6875 1.597656 Z M 8.933594 9.105469 L 8.933594 5.980469 C 8.933594 5.5625 9.273438 5.226562 9.6875 5.226562 C 10.105469 5.226562 10.445312 5.5625 10.445312 5.980469 L 10.445312 8.671875 L 12.152344 9.65625 C 12.515625 9.867188 12.640625 10.328125 12.429688 10.6875 C 12.289062 10.929688 12.035156 11.066406 11.777344 11.066406 C 11.648438 11.066406 11.519531 11.035156 11.398438 10.964844 L 9.3125 9.761719 C 9.078125 9.625 8.933594 9.375 8.933594 9.105469 Z M 8.933594 3.242188 L 8.933594 2.527344 C 8.933594 2.109375 9.273438 1.773438 9.6875 1.773438 C 10.105469 1.773438 10.445312 2.109375 10.445312 2.527344 L 10.445312 3.242188 C 10.445312 3.65625 10.105469 3.996094 9.6875 3.996094 C 9.273438 3.996094 8.933594 3.65625 8.933594 3.242188 Z M 13.300781 5.492188 C 13.007812 5.199219 13.007812 4.71875 13.300781 4.425781 L 13.808594 3.921875 C 14.101562 3.625 14.582031 3.625 14.875 3.921875 C 15.171875 4.214844 15.171875 4.695312 14.875 4.988281 L 14.371094 5.492188 C 14.222656 5.640625 14.03125 5.714844 13.835938 5.714844 C 13.644531 5.714844 13.449219 5.640625 13.300781 5.492188 Z M 13.300781 13.789062 C 13.007812 13.492188 13.007812 13.015625 13.300781 12.71875 C 13.597656 12.425781 14.074219 12.425781 14.371094 12.71875 L 14.875 13.222656 C 15.171875 13.519531 15.171875 13.996094 14.875 14.292969 C 14.726562 14.441406 14.535156 14.511719 14.339844 14.511719 C 14.148438 14.511719 13.953125 14.441406 13.808594 14.292969 Z M 4.503906 14.292969 C 4.207031 13.996094 4.207031 13.519531 4.503906 13.222656 L 5.007812 12.71875 C 5.304688 12.425781 5.78125 12.425781 6.074219 12.71875 C 6.371094 13.015625 6.371094 13.492188 6.074219 13.789062 L 5.570312 14.292969 C 5.425781 14.441406 5.230469 14.511719 5.039062 14.511719 C 4.84375 14.511719 4.652344 14.441406 4.503906 14.292969 Z M 4.503906 4.988281 C 4.207031 4.695312 4.207031 4.214844 4.503906 3.921875 C 4.796875 3.625 5.277344 3.625 5.570312 3.921875 L 6.074219 4.425781 C 6.371094 4.71875 6.371094 5.199219 6.074219 5.492188 C 5.929688 5.640625 5.734375 5.714844 5.542969 5.714844 C 5.347656 5.714844 5.15625 5.640625 5.007812 5.492188 Z M 15.554688 8.351562 L 16.269531 8.351562 C 16.683594 8.351562 17.023438 8.6875 17.023438 9.105469 C 17.023438 9.523438 16.683594 9.863281 16.269531 9.863281 L 15.554688 9.863281 C 15.136719 9.863281 14.800781 9.523438 14.800781 9.105469 C 14.800781 8.6875 15.136719 8.351562 15.554688 8.351562 Z M 8.933594 15.683594 L 8.933594 14.972656 C 8.933594 14.554688 9.273438 14.214844 9.6875 14.214844 C 10.105469 14.214844 10.445312 14.554688 10.445312 14.972656 L 10.445312 15.683594 C 10.445312 16.101562 10.105469 16.441406 9.6875 16.441406 C 9.273438 16.441406 8.933594 16.101562 8.933594 15.683594 Z M 3.824219 9.863281 L 3.109375 9.863281 C 2.695312 9.863281 2.355469 9.523438 2.355469 9.105469 C 2.355469 8.6875 2.695312 8.351562 3.109375 8.351562 L 3.824219 8.351562 C 4.242188 8.351562 4.578125 8.6875 4.578125 9.105469 C 4.578125 9.523438 4.242188 9.863281 3.824219 9.863281 Z M 35.894531 20.484375 C 40.734375 20.484375 44.675781 16.546875 44.675781 11.703125 C 44.675781 6.859375 40.734375 2.921875 35.894531 2.921875 C 31.050781 2.921875 27.113281 6.859375 27.113281 11.703125 C 27.113281 16.546875 31.050781 20.484375 35.894531 20.484375 Z M 35.894531 4.433594 C 39.902344 4.433594 43.164062 7.695312 43.164062 11.703125 C 43.164062 15.710938 39.902344 18.972656 35.894531 18.972656 C 31.882812 18.972656 28.621094 15.710938 28.621094 11.703125 C 28.621094 7.695312 31.882812 4.433594 35.894531 4.433594 Z M 33.464844 15.472656 C 33.84375 15.851562 34.34375 16.042969 34.839844 16.042969 C 35.339844 16.042969 35.839844 15.851562 36.21875 15.472656 C 37.214844 14.476562 38.222656 13.453125 39.195312 12.464844 C 39.785156 11.867188 40.375 11.269531 40.964844 10.675781 C 41.71875 9.914062 41.714844 8.683594 40.957031 7.929688 C 40.589844 7.5625 40.101562 7.363281 39.585938 7.363281 C 39.582031 7.363281 39.578125 7.363281 39.578125 7.363281 C 39.058594 7.363281 38.570312 7.570312 38.207031 7.9375 L 34.835938 11.339844 L 33.578125 10.082031 C 32.820312 9.324219 31.585938 9.324219 30.828125 10.082031 C 30.070312 10.84375 30.070312 12.078125 30.828125 12.835938 Z M 31.894531 11.152344 C 31.976562 11.070312 32.085938 11.023438 32.203125 11.023438 C 32.320312 11.023438 32.429688 11.070312 32.511719 11.152344 L 34.304688 12.945312 C 34.445312 13.085938 34.640625 13.167969 34.839844 13.167969 C 35.042969 13.164062 35.234375 13.085938 35.375 12.941406 L 39.277344 9 C 39.359375 8.917969 39.46875 8.875 39.582031 8.875 C 39.582031 8.875 39.582031 8.875 39.585938 8.875 C 39.699219 8.875 39.808594 8.917969 39.890625 9 C 40.058594 9.167969 40.058594 9.441406 39.890625 9.613281 C 39.300781 10.207031 38.710938 10.808594 38.121094 11.40625 C 37.148438 12.390625 36.144531 13.410156 35.148438 14.40625 C 34.980469 14.574219 34.703125 14.574219 34.535156 14.40625 L 31.894531 11.765625 C 31.726562 11.597656 31.726562 11.320312 31.894531 11.152344 Z M 38.726562 33.597656 C 36.21875 33.597656 34.183594 35.636719 34.183594 38.144531 C 34.183594 40.648438 36.21875 42.6875 38.726562 42.6875 C 41.230469 42.6875 43.269531 40.648438 43.269531 38.144531 C 43.269531 35.636719 41.230469 33.597656 38.726562 33.597656 Z M 38.726562 41.175781 C 37.054688 41.175781 35.691406 39.816406 35.691406 38.144531 C 35.691406 36.46875 37.054688 35.109375 38.726562 35.109375 C 40.398438 35.109375 41.757812 36.46875 41.757812 38.144531 C 41.757812 39.816406 40.398438 41.175781 38.726562 41.175781 Z M 47.023438 36.351562 L 46.054688 35.976562 C 45.902344 35.460938 45.695312 34.964844 45.4375 34.492188 L 45.859375 33.542969 C 45.988281 33.257812 45.925781 32.921875 45.703125 32.703125 L 44.167969 31.164062 C 43.945312 30.945312 43.613281 30.882812 43.328125 31.007812 L 42.375 31.433594 C 41.902344 31.175781 41.40625 30.96875 40.890625 30.816406 L 40.519531 29.84375 C 40.40625 29.554688 40.125 29.359375 39.8125 29.359375 L 37.640625 29.359375 C 37.328125 29.359375 37.046875 29.554688 36.933594 29.84375 L 36.5625 30.816406 C 36.046875 30.96875 35.550781 31.175781 35.078125 31.433594 L 34.125 31.007812 C 33.839844 30.882812 33.503906 30.945312 33.285156 31.164062 L 31.75 32.703125 C 31.527344 32.921875 31.464844 33.257812 31.59375 33.542969 L 32.015625 34.492188 C 31.757812 34.964844 31.550781 35.464844 31.398438 35.976562 L 30.429688 36.351562 C 30.136719 36.464844 29.945312 36.746094 29.945312 37.058594 L 29.945312 39.230469 C 29.945312 39.542969 30.136719 39.820312 30.429688 39.933594 L 31.398438 40.308594 C 31.550781 40.824219 31.757812 41.320312 32.015625 41.792969 L 31.59375 42.742188 C 31.464844 43.03125 31.527344 43.363281 31.75 43.585938 L 33.285156 45.121094 C 33.503906 45.34375 33.839844 45.402344 34.125 45.277344 L 35.078125 44.855469 C 35.550781 45.113281 36.046875 45.316406 36.5625 45.46875 L 36.933594 46.441406 C 37.046875 46.734375 37.328125 46.925781 37.640625 46.925781 L 39.8125 46.925781 C 40.125 46.925781 40.40625 46.734375 40.519531 46.441406 L 40.890625 45.46875 C 41.40625 45.316406 41.902344 45.113281 42.375 44.855469 L 43.328125 45.277344 C 43.613281 45.402344 43.945312 45.34375 44.167969 45.121094 L 45.703125 43.585938 C 45.925781 43.363281 45.988281 43.03125 45.859375 42.742188 L 45.4375 41.792969 C 45.695312 41.320312 45.902344 40.824219 46.054688 40.308594 L 47.023438 39.933594 C 47.316406 39.820312 47.507812 39.542969 47.507812 39.230469 L 47.507812 37.058594 C 47.507812 36.746094 47.316406 36.464844 47.023438 36.351562 Z M 45.996094 38.710938 L 45.152344 39.035156 C 44.917969 39.125 44.746094 39.324219 44.6875 39.566406 C 44.539062 40.195312 44.289062 40.796875 43.949219 41.351562 C 43.816406 41.5625 43.800781 41.824219 43.902344 42.054688 L 44.269531 42.882812 L 43.464844 43.6875 L 42.636719 43.316406 C 42.410156 43.214844 42.148438 43.234375 41.933594 43.363281 C 41.382812 43.707031 40.78125 43.953125 40.148438 44.105469 C 39.90625 44.164062 39.710938 44.335938 39.621094 44.566406 L 39.292969 45.414062 L 38.160156 45.414062 L 37.832031 44.566406 C 37.742188 44.335938 37.546875 44.160156 37.304688 44.105469 C 36.671875 43.953125 36.070312 43.707031 35.519531 43.363281 C 35.304688 43.234375 35.042969 43.214844 34.816406 43.316406 L 33.984375 43.6875 L 33.183594 42.882812 L 33.550781 42.054688 C 33.652344 41.828125 33.636719 41.5625 33.503906 41.351562 C 33.164062 40.796875 32.914062 40.195312 32.765625 39.566406 C 32.707031 39.324219 32.535156 39.125 32.300781 39.035156 L 31.457031 38.710938 L 31.457031 37.574219 L 32.300781 37.25 C 32.535156 37.160156 32.707031 36.960938 32.765625 36.71875 C 32.914062 36.089844 33.164062 35.488281 33.503906 34.933594 C 33.636719 34.722656 33.652344 34.460938 33.550781 34.234375 L 33.183594 33.402344 L 33.984375 32.601562 L 34.816406 32.96875 C 35.042969 33.070312 35.304688 33.050781 35.519531 32.921875 C 36.070312 32.582031 36.671875 32.332031 37.304688 32.183594 C 37.546875 32.125 37.742188 31.949219 37.832031 31.71875 L 38.160156 30.871094 L 39.292969 30.871094 L 39.621094 31.71875 C 39.707031 31.949219 39.90625 32.125 40.148438 32.183594 C 40.78125 32.332031 41.378906 32.582031 41.933594 32.921875 C 42.148438 33.050781 42.410156 33.070312 42.636719 32.96875 L 43.464844 32.601562 L 44.269531 33.402344 L 43.902344 34.230469 C 43.800781 34.460938 43.816406 34.722656 43.949219 34.933594 C 44.289062 35.488281 44.539062 36.089844 44.6875 36.71875 C 44.746094 36.960938 44.917969 37.160156 45.152344 37.25 L 45.996094 37.574219 Z M 45.996094 38.710938 " fill-opacity="1" fill-rule="nonzero"/></g></svg>