<svg xmlns="http://www.w3.org/2000/svg" xmlns:xlink="http://www.w3.org/1999/xlink" width="64" zoomAndPan="magnify" viewBox="0 0 48 48" height="64" preserveAspectRatio="xMidYMid meet" version="1.0"><defs><clipPath id="0572abbfe2"><path d="M 0.488281 0 L 47.507812 0 L 47.507812 47.019531 L 0.488281 47.019531 Z M 0.488281 0 " clip-rule="nonzero"/></clipPath><clipPath id="287f1230b9"><path d="M 2.472656 1.984375 L 45.820312 1.984375 L 45.820312 45.332031 L 2.472656 45.332031 Z M 2.472656 1.984375 " clip-rule="nonzero"/></clipPath><clipPath id="60cb71a0f0"><path d="M 19 8 L 40 8 L 40 45.332031 L 19 45.332031 Z M 19 8 " clip-rule="nonzero"/></clipPath></defs><g clip-path="url(#0572abbfe2)"><path fill="#ffffff" d="M 0.488281 0 L 47.511719 0 L 47.511719 47.019531 L 0.488281 47.019531 Z M 0.488281 0 " fill-opacity="1" fill-rule="nonzero"/><path fill="#ffffff" d="M 0.488281 0 L 47.511719 0 L 47.511719 47.019531 L 0.488281 47.019531 Z M 0.488281 0 " fill-opacity="1" fill-rule="nonzero"/></g><g clip-path="url(#287f1230b9)"><path fill="#3d5a98" d="M 43.425781 45.328125 C 44.746094 45.328125 45.816406 44.257812 45.816406 42.933594 L 45.816406 4.375 C 45.816406 3.054688 44.746094 1.984375 43.425781 1.984375 L 4.867188 1.984375 C 3.542969 1.984375 2.472656 3.054688 2.472656 4.375 L 2.472656 42.933594 C 2.472656 44.257812 3.542969 45.328125 4.867188 45.328125 Z M 43.425781 45.328125 " fill-opacity="1" fill-rule="nonzero"/></g><g clip-path="url(#60cb71a0f0)"><path fill="#ffffff" d="M 32.378906 45.328125 L 32.378906 28.542969 L 38.015625 28.542969 L 38.859375 22 L 32.378906 22 L 32.378906 17.824219 C 32.378906 15.929688 32.90625 14.640625 35.621094 14.640625 L 39.085938 14.636719 L 39.085938 8.789062 C 38.488281 8.707031 36.429688 8.53125 34.039062 8.53125 C 29.042969 8.53125 25.625 11.578125 25.625 17.175781 L 25.625 22 L 19.976562 22 L 19.976562 28.542969 L 25.625 28.542969 L 25.625 45.328125 Z M 32.378906 45.328125 " fill-opacity="1" fill-rule="nonzero"/></g></svg>