<svg xmlns="http://www.w3.org/2000/svg" xmlns:xlink="http://www.w3.org/1999/xlink" width="7192" zoomAndPan="magnify" viewBox="0 0 5394 952.499971" height="1269" preserveAspectRatio="xMidYMid meet" version="1.0"><defs><g/><clipPath id="89e568c28c"><path d="M 1.414062 0 L 5392.582031 0 L 5392.582031 952 L 1.414062 952 Z M 1.414062 0 " clip-rule="nonzero"/></clipPath><clipPath id="2cfe81de4c"><path d="M 2671.367188 203.679688 L 3085 203.679688 L 3085 336 L 2671.367188 336 Z M 2671.367188 203.679688 " clip-rule="nonzero"/></clipPath><clipPath id="67177808d4"><path d="M 2671.367188 418 L 3100.140625 418 L 3100.140625 632.453125 L 2671.367188 632.453125 Z M 2671.367188 418 " clip-rule="nonzero"/></clipPath><clipPath id="8f36bd52d2"><path d="M 2671.367188 306 L 2745 306 L 2745 381 L 2671.367188 381 Z M 2671.367188 306 " clip-rule="nonzero"/></clipPath><clipPath id="2c48641a85"><path d="M 2334.074219 195.023438 L 2659.402344 195.023438 L 2659.402344 632.796875 L 2334.074219 632.796875 Z M 2334.074219 195.023438 " clip-rule="nonzero"/></clipPath><clipPath id="f463423883"><path d="M 2550 195.023438 L 2659.402344 195.023438 L 2659.402344 390 L 2550 390 Z M 2550 195.023438 " clip-rule="nonzero"/></clipPath><clipPath id="c23348683c"><path d="M 2334.074219 437 L 2443 437 L 2443 632.796875 L 2334.074219 632.796875 Z M 2334.074219 437 " clip-rule="nonzero"/></clipPath></defs><g clip-path="url(#89e568c28c)"><path fill="#ffffff" d="M 1.414062 0 L 5392.585938 0 L 5392.585938 952 L 1.414062 952 Z M 1.414062 0 " fill-opacity="1" fill-rule="nonzero"/><path fill="#ffffff" d="M 1.414062 0 L 5392.585938 0 L 5392.585938 952 L 1.414062 952 Z M 1.414062 0 " fill-opacity="1" fill-rule="nonzero"/></g><g clip-path="url(#2cfe81de4c)"><path fill="#004aad" d="M 2745.03125 277.425781 L 2886.019531 277.425781 C 2932.824219 277.425781 2974.363281 300.382812 2999.976562 335.621094 L 3084.0625 335.621094 C 3073.429688 310.125 3057.804688 286.707031 3037.675781 266.589844 C 2997.167969 226.074219 2943.3125 203.761719 2886.019531 203.761719 L 2671.367188 203.761719 C 2671.367188 244.445312 2704.347656 277.425781 2745.03125 277.425781 " fill-opacity="1" fill-rule="nonzero"/></g><g clip-path="url(#67177808d4)"><path fill="#004aad" d="M 3026.828125 418.242188 L 2886.015625 418.242188 C 2886.015625 459.082031 2919.121094 492.191406 2959.960938 492.191406 L 3005.796875 492.191406 C 2980.953125 532.289062 2936.558594 559.058594 2886.019531 559.058594 C 2808.371094 559.058594 2745.203125 495.886719 2745.203125 418.242188 L 2671.539062 418.242188 C 2671.539062 475.535156 2693.851562 529.394531 2734.367188 569.898438 C 2774.871094 610.414062 2828.730469 632.722656 2886.019531 632.722656 C 2943.3125 632.722656 2997.167969 610.414062 3037.675781 569.898438 C 3078.191406 529.394531 3100.492188 475.535156 3100.492188 418.242188 L 3026.828125 418.242188 " fill-opacity="1" fill-rule="nonzero"/></g><g clip-path="url(#8f36bd52d2)"><path fill="#004aad" d="M 2711.335938 380.109375 L 2744.71875 380.109375 L 2744.71875 342.492188 C 2744.71875 322.757812 2728.71875 306.753906 2708.980469 306.753906 L 2671.367188 306.753906 L 2671.367188 340.140625 C 2671.367188 362.214844 2689.257812 380.109375 2711.335938 380.109375 " fill-opacity="1" fill-rule="nonzero"/></g><g clip-path="url(#2c48641a85)"><path fill="#ff3131" d="M 2550.683594 469.523438 C 2550.6875 469.324219 2550.660156 469.136719 2550.59375 468.949219 C 2550.527344 468.765625 2550.429688 468.601562 2550.300781 468.449219 C 2550.167969 468.300781 2550.019531 468.183594 2549.84375 468.089844 C 2549.667969 467.996094 2549.480469 467.9375 2549.285156 467.914062 C 2546.402344 467.589844 2543.453125 467.40625 2540.441406 467.367188 C 2514.015625 467.078125 2487.589844 467.128906 2461.160156 467.519531 C 2444.597656 467.757812 2432.378906 467.222656 2424.507812 465.914062 C 2400.535156 461.894531 2379.984375 450.746094 2362.855469 432.46875 C 2348.285156 416.921875 2336.949219 393.167969 2335.457031 372.539062 C 2334.714844 362.285156 2334.335938 350.316406 2334.324219 336.636719 C 2334.273438 285.007812 2334.367188 238.625 2334.609375 197.5 C 2334.609375 197.265625 2334.65625 197.039062 2334.746094 196.820312 C 2334.835938 196.601562 2334.964844 196.410156 2335.132812 196.242188 C 2335.296875 196.074219 2335.488281 195.945312 2335.707031 195.851562 C 2335.921875 195.757812 2336.148438 195.710938 2336.382812 195.703125 C 2357.027344 195.226562 2377.585938 195.164062 2398.054688 195.515625 C 2417.308594 195.855469 2433.3125 207.742188 2439.753906 225.539062 C 2441.945312 231.574219 2443.015625 239.601562 2442.964844 249.628906 C 2442.738281 286.417969 2442.53125 321.84375 2442.796875 358.289062 C 2442.800781 358.515625 2442.84375 358.730469 2442.929688 358.9375 C 2443.019531 359.140625 2443.140625 359.324219 2443.300781 359.480469 C 2443.460938 359.636719 2443.644531 359.757812 2443.851562 359.84375 C 2444.058594 359.929688 2444.273438 359.972656 2444.496094 359.972656 C 2476.515625 360.109375 2509.296875 360.054688 2542.84375 359.800781 C 2556.472656 359.703125 2567.386719 360.679688 2575.585938 362.730469 C 2591.835938 366.8125 2606.03125 373.722656 2618.171875 383.457031 C 2640.496094 401.382812 2653.800781 425.042969 2658.097656 454.445312 C 2658.902344 459.921875 2659.289062 472.734375 2659.25 492.875 C 2659.199219 533.886719 2659.160156 577.148438 2659.136719 622.660156 C 2659.136719 625.355469 2658.972656 628.019531 2658.644531 630.652344 C 2658.621094 630.851562 2658.566406 631.039062 2658.472656 631.214844 C 2658.378906 631.394531 2658.261719 631.550781 2658.109375 631.683594 C 2657.960938 631.816406 2657.792969 631.921875 2657.605469 631.992188 C 2657.417969 632.066406 2657.222656 632.105469 2657.019531 632.109375 C 2635.769531 632.535156 2614.515625 632.464844 2593.253906 631.898438 C 2575.265625 631.410156 2560.226562 619.355469 2553.707031 602.726562 C 2551.550781 597.234375 2550.46875 589.644531 2550.457031 579.960938 C 2550.394531 555.183594 2550.511719 529.882812 2550.816406 504.0625 C 2550.949219 492.515625 2550.363281 481.121094 2550.683594 469.523438 Z M 2550.683594 469.523438 " fill-opacity="1" fill-rule="nonzero"/></g><g clip-path="url(#f463423883)"><path fill="#ff3131" d="M 2659.175781 388.21875 C 2659.175781 388.445312 2659.148438 388.671875 2659.097656 388.898438 C 2658.871094 389.933594 2658.425781 390.039062 2657.757812 389.222656 C 2652.695312 383.097656 2647.84375 377.789062 2643.207031 373.292969 C 2618.117188 349.046875 2587.671875 336.40625 2551.875 335.371094 C 2551.695312 335.367188 2551.523438 335.328125 2551.355469 335.257812 C 2551.191406 335.183594 2551.046875 335.082031 2550.921875 334.953125 C 2550.796875 334.824219 2550.699219 334.679688 2550.632812 334.511719 C 2550.566406 334.34375 2550.53125 334.171875 2550.53125 333.992188 C 2550.582031 304.027344 2550.558594 276.203125 2550.457031 250.515625 C 2550.40625 239.746094 2551.433594 231.441406 2553.535156 225.597656 C 2558.210938 212.597656 2567.027344 203.46875 2579.988281 198.21875 C 2587.714844 195.101562 2596.746094 195.289062 2605.023438 195.25 C 2621.789062 195.175781 2639.066406 195.289062 2656.851562 195.589844 C 2657.15625 195.597656 2657.449219 195.664062 2657.734375 195.785156 C 2658.015625 195.90625 2658.261719 196.074219 2658.476562 196.289062 C 2658.691406 196.507812 2658.859375 196.757812 2658.976562 197.039062 C 2659.09375 197.320312 2659.152344 197.613281 2659.15625 197.914062 C 2659.519531 258.085938 2659.527344 321.523438 2659.175781 388.21875 Z M 2659.175781 388.21875 " fill-opacity="1" fill-rule="nonzero"/></g><g clip-path="url(#c23348683c)"><path fill="#ff3131" d="M 2442.777344 582.414062 C 2442.816406 595.734375 2438.300781 611.023438 2428.472656 619.769531 C 2419.605469 627.667969 2409.390625 631.75 2397.828125 632.011719 C 2378.164062 632.453125 2357.632812 632.441406 2336.230469 631.976562 C 2336.03125 631.972656 2335.839844 631.929688 2335.65625 631.851562 C 2335.472656 631.777344 2335.308594 631.667969 2335.167969 631.527344 C 2335.023438 631.390625 2334.914062 631.230469 2334.832031 631.050781 C 2334.753906 630.867188 2334.710938 630.679688 2334.703125 630.484375 C 2334.589844 627.671875 2334.527344 625.015625 2334.511719 622.507812 C 2334.414062 564.074219 2334.398438 502.84375 2334.476562 438.820312 C 2334.476562 437.28125 2334.949219 437.117188 2335.890625 438.328125 C 2354.75 462.4375 2378.128906 478.722656 2406.027344 487.1875 C 2417.800781 490.777344 2429.097656 491.910156 2440.886719 492.421875 C 2441.128906 492.429688 2441.359375 492.484375 2441.582031 492.585938 C 2441.800781 492.683594 2441.996094 492.820312 2442.164062 492.996094 C 2442.328125 493.171875 2442.457031 493.371094 2442.546875 493.59375 C 2442.636719 493.816406 2442.683594 494.050781 2442.683594 494.292969 C 2442.683594 523.867188 2442.714844 553.242188 2442.777344 582.414062 Z M 2442.777344 582.414062 " fill-opacity="1" fill-rule="nonzero"/></g><g fill="#000000" fill-opacity="1"><g transform="translate(2340.91961, 709.319184)"><g><path d="M 17 -35.8125 C 20.625 -35.8125 23.738281 -35.160156 26.34375 -33.859375 C 28.945312 -32.554688 30.953125 -30.570312 32.359375 -27.90625 C 33.773438 -25.25 34.484375 -21.914062 34.484375 -17.90625 C 34.484375 -13.882812 33.773438 -10.539062 32.359375 -7.875 C 30.953125 -5.21875 28.945312 -3.238281 26.34375 -1.9375 C 23.738281 -0.644531 20.625 0 17 0 L 5.40625 0 L 5.40625 -35.8125 Z M 16.578125 -3.578125 C 19.566406 -3.578125 22.039062 -4.039062 24 -4.96875 C 25.957031 -5.90625 27.441406 -7.425781 28.453125 -9.53125 C 29.460938 -11.632812 29.96875 -14.425781 29.96875 -17.90625 C 29.96875 -21.394531 29.460938 -24.1875 28.453125 -26.28125 C 27.441406 -28.382812 25.957031 -29.898438 24 -30.828125 C 22.039062 -31.765625 19.566406 -32.234375 16.578125 -32.234375 L 9.625 -32.234375 L 9.625 -3.578125 Z M 16.578125 -3.578125 "/></g></g></g><g fill="#000000" fill-opacity="1"><g transform="translate(2412.685249, 709.319184)"><g><path d="M 9.625 -16.875 L 9.625 -3.484375 L 27.875 -3.484375 L 27.875 0 L 5.40625 0 L 5.40625 -35.8125 L 27.484375 -35.8125 L 27.484375 -32.328125 L 9.625 -32.328125 L 9.625 -20.34375 L 25.375 -20.34375 L 25.375 -16.875 Z M 9.625 -16.875 "/></g></g></g><g fill="#000000" fill-opacity="1"><g transform="translate(2476.638178, 709.319184)"><g><path d="M 19.5 0 L 13.953125 0 L 1.546875 -35.8125 L 6.03125 -35.8125 L 16.53125 -5.265625 L 17.140625 -5.265625 L 27.53125 -35.8125 L 31.9375 -35.8125 Z M 19.5 0 "/></g></g></g><g fill="#000000" fill-opacity="1"><g transform="translate(2543.799462, 709.319184)"><g><path d="M 9.625 -16.875 L 9.625 -3.484375 L 27.875 -3.484375 L 27.875 0 L 5.40625 0 L 5.40625 -35.8125 L 27.484375 -35.8125 L 27.484375 -32.328125 L 9.625 -32.328125 L 9.625 -20.34375 L 25.375 -20.34375 L 25.375 -16.875 Z M 9.625 -16.875 "/></g></g></g><g fill="#000000" fill-opacity="1"><g transform="translate(2607.752391, 709.319184)"><g><path d="M 9.625 -35.8125 L 9.625 -3.484375 L 26.859375 -3.484375 L 26.859375 0 L 5.40625 0 L 5.40625 -35.8125 Z M 9.625 -35.8125 "/></g></g></g><g fill="#000000" fill-opacity="1"><g transform="translate(2669.844001, 709.319184)"><g><path d="M 19.640625 0.515625 C 16.535156 0.515625 13.773438 -0.148438 11.359375 -1.484375 C 8.941406 -2.828125 7.039062 -4.875 5.65625 -7.625 C 4.269531 -10.375 3.578125 -13.800781 3.578125 -17.90625 C 3.578125 -22 4.269531 -25.421875 5.65625 -28.171875 C 7.039062 -30.921875 8.941406 -32.960938 11.359375 -34.296875 C 13.773438 -35.640625 16.535156 -36.3125 19.640625 -36.3125 C 22.742188 -36.3125 25.503906 -35.640625 27.921875 -34.296875 C 30.335938 -32.960938 32.238281 -30.921875 33.625 -28.171875 C 35.007812 -25.421875 35.703125 -22 35.703125 -17.90625 C 35.703125 -13.800781 35.007812 -10.375 33.625 -7.625 C 32.238281 -4.875 30.335938 -2.828125 27.921875 -1.484375 C 25.503906 -0.148438 22.742188 0.515625 19.640625 0.515625 Z M 19.640625 -3.375 C 23.359375 -3.375 26.210938 -4.535156 28.203125 -6.859375 C 30.203125 -9.191406 31.203125 -12.875 31.203125 -17.90625 C 31.203125 -22.9375 30.203125 -26.613281 28.203125 -28.9375 C 26.210938 -31.257812 23.359375 -32.421875 19.640625 -32.421875 C 11.929688 -32.421875 8.078125 -27.582031 8.078125 -17.90625 C 8.078125 -8.21875 11.929688 -3.375 19.640625 -3.375 Z M 19.640625 -3.375 "/></g></g></g><g fill="#000000" fill-opacity="1"><g transform="translate(2742.834216, 709.319184)"><g><path d="M 18.21875 -35.8125 C 20.6875 -35.8125 22.800781 -35.367188 24.5625 -34.484375 C 26.320312 -33.597656 27.660156 -32.332031 28.578125 -30.6875 C 29.503906 -29.050781 29.96875 -27.125 29.96875 -24.90625 C 29.96875 -22.6875 29.503906 -20.757812 28.578125 -19.125 C 27.660156 -17.488281 26.320312 -16.226562 24.5625 -15.34375 C 22.800781 -14.457031 20.6875 -14.015625 18.21875 -14.015625 L 9.625 -14.015625 L 9.625 0 L 5.40625 0 L 5.40625 -35.8125 Z M 18.09375 -17.609375 C 23.070312 -17.609375 25.5625 -20.039062 25.5625 -24.90625 C 25.5625 -29.789062 23.070312 -32.234375 18.09375 -32.234375 L 9.625 -32.234375 L 9.625 -17.609375 Z M 18.09375 -17.609375 "/></g></g></g><g fill="#000000" fill-opacity="1"><g transform="translate(2809.187305, 709.319184)"><g><path d="M 9.3125 0 L 5.40625 0 L 5.40625 -35.8125 L 11.65625 -35.8125 L 22.5 -5.484375 L 23.015625 -5.484375 L 33.875 -35.8125 L 39.890625 -35.8125 L 39.890625 0 L 35.90625 0 L 35.90625 -29.21875 L 35.296875 -29.3125 L 24.703125 0 L 20.515625 0 L 9.921875 -29.3125 L 9.3125 -29.21875 Z M 9.3125 0 "/></g></g></g><g fill="#000000" fill-opacity="1"><g transform="translate(2888.226861, 709.319184)"><g><path d="M 9.625 -16.875 L 9.625 -3.484375 L 27.875 -3.484375 L 27.875 0 L 5.40625 0 L 5.40625 -35.8125 L 27.484375 -35.8125 L 27.484375 -32.328125 L 9.625 -32.328125 L 9.625 -20.34375 L 25.375 -20.34375 L 25.375 -16.875 Z M 9.625 -16.875 "/></g></g></g><g fill="#000000" fill-opacity="1"><g transform="translate(2952.179775, 709.319184)"><g><path d="M 9.53125 0 L 5.40625 0 L 5.40625 -35.8125 L 10.578125 -35.8125 L 28.046875 -8.453125 L 28.65625 -8.546875 L 28.65625 -35.8125 L 32.75 -35.8125 L 32.75 0 L 28.328125 0 L 10.140625 -29.265625 L 9.53125 -29.171875 Z M 9.53125 0 "/></g></g></g><g fill="#000000" fill-opacity="1"><g transform="translate(3024.067854, 709.319184)"><g><path d="M 27.9375 -35.8125 L 27.9375 -32.234375 L 16.734375 -32.234375 L 16.734375 0 L 12.546875 0 L 12.546875 -32.234375 L 1.328125 -32.234375 L 1.328125 -35.8125 Z M 27.9375 -35.8125 "/></g></g></g></svg>